# xmcd
#
# Track frame offsets:
#	150
#	23825
#	40932
#	61480
#	80102
#	107529
#	136764
#	159364
#	177860
#	195800
#
# Disc length: 2852 seconds
#
# Revision: 0
# Processed by: cddbd v1.5.1PL2 Copyright (c) Steve Scherf et al.
# Submitted via: EasyCDDAExtractor 9.0.0.1
#
DISCID=740b220a
DTITLE=Soma - Päiväni Jumalana
DYEAR=1900
DGENRE=
TTITLE0=Vain Vähän Puhutaan
TTITLE1=Poika Neulapuistossa
TTITLE2=Auringon Jäljet
TTITLE3=Päiväni Jumalana
TTITLE4=Pimeän huone
TTITLE5=Katse
TTITLE6=Rikollisen Omakuva
TTITLE7=Seitsämäs Tunti (Rauhan Tiekartta)
TTITLE8=Ei Ole Kysymyksiä
TTITLE9=Viimeinen Surmanajaja
EXTD=
EXTT0=
EXTT1=
EXTT2=
EXTT3=
EXTT4=
EXTT5=
EXTT6=
EXTT7=
EXTT8=
EXTT9=
PLAYORDER=
